<svg width="120" height="40" viewBox="0 0 120 40" fill="none" xmlns="http://www.w3.org/2000/svg">
  <!-- Modern, geometric wordmark -->
  <defs>
    <linearGradient id="gradient" x1="0%" y1="0%" x2="100%" y2="0%">
      <stop offset="0%" style="stop-color:#2563eb;stop-opacity:1" />
      <stop offset="100%" style="stop-color:#0ea5e9;stop-opacity:1" />
    </linearGradient>
  </defs>
  
  <!-- i -->
  <rect x="5" y="10" width="5" height="20" rx="2.5" fill="url(#gradient)"/>
  <circle cx="7.5" cy="5" r="3" fill="#2563eb"/>
  
  <!-- p -->
  <path d="M18 10 V35 M18 10 H28 C33 10 37 14 37 19 C37 24 33 28 28 28 H18" stroke="url(#gradient)" stroke-width="5" stroke-linecap="round" fill="none"/>
  
  <!-- m -->
  <path d="M45 15 V30 M45 15 C45 15 51 10 57 15 C63 10 69 15 69 15 V30 M57 15 V30" stroke="url(#gradient)" stroke-width="5" stroke-linecap="round" fill="none"/>
  
  <!-- o -->
  <circle cx="82" cy="22.5" r="10" stroke="url(#gradient)" stroke-width="5" fill="none"/>
  
  <!-- b -->
  <path d="M100 5 V35 M100 10 H108 C113 10 116 13 116 17.5 C116 22 113 25 108 25 C113 25 116 28 116 32.5 C116 35 113 35 108 35 H100" stroke="url(#gradient)" stroke-width="5" stroke-linecap="round" fill="none"/>
</svg>