<svg width="200" height="60" viewBox="0 0 200 60" fill="none" xmlns="http://www.w3.org/2000/svg">
  <!-- Logo Icon -->
  <g id="icon">
    <!-- Document Base -->
    <path d="M10 10 H30 V40 L25 45 H10 Z" fill="#2563eb" stroke="#2563eb" stroke-width="1.5" stroke-linejoin="round"/>
    <!-- Document Fold -->
    <path d="M25 40 V45 H30 Z" fill="#1d4ed8" stroke="#1d4ed8" stroke-width="1.5" stroke-linejoin="round"/>
    
    <!-- AI Neural Nodes -->
    <circle cx="15" cy="20" r="2" fill="#ffffff"/>
    <circle cx="25" cy="20" r="2" fill="#ffffff"/>
    <circle cx="15" cy="30" r="2" fill="#ffffff"/>
    <circle cx="25" cy="30" r="2" fill="#ffffff"/>
    <circle cx="20" cy="25" r="3" fill="#0ea5e9"/>
    
    <!-- Neural Connections -->
    <path d="M15 20 L20 25 M25 20 L20 25 M15 30 L20 25 M25 30 L20 25" stroke="#ffffff" stroke-width="1" opacity="0.8"/>
  </g>
  
  <!-- Wordmark -->
  <g id="wordmark">
    <!-- i -->
    <rect x="50" y="15" width="4" height="30" rx="2" fill="#2563eb"/>
    <circle cx="52" cy="10" r="2.5" fill="#2563eb"/>
    
    <!-- p -->
    <path d="M62 20 V45 M62 20 H70 C74 20 77 23 77 27 C77 31 74 34 70 34 H62" stroke="#2563eb" stroke-width="4" stroke-linecap="round" fill="none"/>
    
    <!-- m -->
    <path d="M85 20 V45 M85 20 C85 20 90 15 95 20 C100 15 105 20 105 20 V45 M95 20 V45" stroke="#2563eb" stroke-width="4" stroke-linecap="round" fill="none"/>
    
    <!-- o -->
    <circle cx="118" cy="32.5" r="10" stroke="#2563eb" stroke-width="4" fill="none"/>
    
    <!-- b -->
    <path d="M136 10 V45 M136 20 H144 C148 20 151 23 151 27 C151 31 148 34 144 34 C148 34 151 37 151 41 C151 45 148 45 144 45 H136" stroke="#2563eb" stroke-width="4" stroke-linecap="round" fill="none"/>
  </g>
</svg>